<svg width="1080" height="1080" viewBox="0 0 1080 1080" fill="none" xmlns="http://www.w3.org/2000/svg">
<circle cx="540" cy="540" r="540" fill="white"/>
<circle cx="540" cy="540" r="510" fill="#370292"/>
<g clip-path="url(#clip0_8_57)">
<path d="M573.304 386.188C573.3 386.188 573.295 386.188 573.292 386.188L471.769 386.05C468.818 386.046 466.039 384.65 464.275 382.283C454.858 369.656 449.881 354.637 449.881 338.848C449.881 307.819 469.58 280.184 498.903 270.084C499.884 269.746 500.916 269.574 501.953 269.574H543.239C544.277 269.574 545.307 269.747 546.289 270.084C575.61 280.184 595.31 307.819 595.31 338.848C595.31 354.71 590.292 369.786 580.796 382.442C579.027 384.8 576.251 386.188 573.304 386.188ZM480.842 367.33L564.27 367.444C566.871 367.448 569.311 366.054 570.515 363.748C574.501 356.111 576.578 347.643 576.578 338.847C576.578 316.312 562.588 296.19 541.606 288.304H503.584C482.602 296.19 468.611 316.312 468.611 338.847C468.611 347.59 470.666 356.015 474.608 363.618C475.805 365.927 478.242 367.326 480.842 367.33Z" fill="#9E8CC3"/>
<path d="M711.436 632.4H341.065C335.892 632.4 331.7 628.207 331.7 623.034C331.7 617.862 335.894 613.669 341.065 613.669H711.436C716.609 613.669 720.801 617.862 720.801 623.034C720.801 628.207 716.609 632.4 711.436 632.4Z" fill="#9E8CC3"/>
<path d="M526.251 666.354C515.068 666.354 506.005 657.29 506.005 646.108V599.96C506.005 588.777 515.07 579.713 526.251 579.713C537.433 579.713 546.497 588.778 546.497 599.96V646.108C546.498 657.29 537.433 666.354 526.251 666.354Z" fill="#ED802D"/>
<path d="M343.317 855C342.288 855 341.242 854.829 340.217 854.47C335.336 852.758 332.768 847.413 334.48 842.532L348.101 803.699C349.813 798.819 355.155 796.248 360.039 797.962C364.92 799.673 367.488 805.018 365.777 809.9L352.155 848.732C350.802 852.587 347.183 855 343.317 855Z" fill="#B7A6D3"/>
<path d="M708.552 855C704.685 855 701.067 852.588 699.715 848.732L686.094 809.9C684.382 805.02 686.95 799.674 691.831 797.962C696.715 796.249 702.056 798.819 703.769 803.699L717.391 842.532C719.102 847.412 716.534 852.757 711.653 854.47C710.625 854.829 709.579 855 708.552 855Z" fill="#B7A6D3"/>
<path d="M403.914 740.696L407.37 739.132L530.889 387.021L491.404 363.578L469.986 387.662C456.633 402.676 446.343 420.155 439.691 439.115L346.279 705.419C344.775 709.709 343.756 714.175 343.253 718.696L344.741 721.836L403.914 740.696Z" fill="white"/>
<path d="M518.004 386.9L557.964 365.28L577.906 387.205C591.816 402.499 602.51 420.433 609.354 439.941L696.568 688.574C702.002 704.065 705.662 720.121 707.478 736.436L714.132 796.207C715.086 804.776 710.041 812.881 701.932 815.808L689.695 820.227C679.942 823.749 669.191 818.637 665.764 808.851L518.004 386.9Z" fill="white"/>
<path d="M712.662 748.361C732.344 748.361 748.3 732.406 748.3 712.723C748.3 693.041 732.344 677.085 712.662 677.085C692.98 677.085 677.024 693.041 677.024 712.723C677.024 732.406 692.98 748.361 712.662 748.361Z" fill="#ED802D"/>
<path d="M712.662 721.751C717.648 721.751 721.69 717.709 721.69 712.723C721.69 707.737 717.648 703.695 712.662 703.695C707.676 703.695 703.634 707.737 703.634 712.723C703.634 717.709 707.676 721.751 712.662 721.751Z" fill="#F5BC90"/>
<path d="M343.253 718.696L334.635 796.115C333.675 804.736 338.788 812.881 346.969 815.764L359.188 820.069C368.911 823.495 379.568 818.382 382.981 808.655L407.37 739.13L343.253 718.696Z" fill="#E2DAEF"/>
<path d="M531.084 299.771H514.105C507.394 299.771 501.953 294.331 501.953 287.619V237.152C501.953 230.441 507.393 225 514.105 225H531.084C537.795 225 543.236 230.44 543.236 237.152V287.619C543.236 294.33 537.795 299.771 531.084 299.771Z" fill="#B7A6D3"/>
<path d="M531.536 439.509C527.36 427.604 515.5 409.376 506.664 396.676C501.765 389.633 497.875 381.977 494.377 374.143C492.84 370.699 490.406 367.743 487.374 365.57L482.083 365.531C475.105 368.868 470.369 375.953 470.369 384.204V414.861C470.369 418.595 471.378 422.26 473.288 425.468L489.818 453.23C493.556 459.509 500.324 463.355 507.632 463.355H536.705L538.996 460.778L531.536 439.509Z" fill="#E2DAEF"/>
<path d="M492.008 375.761C495.442 383.454 499.262 390.969 504.073 397.886C512.749 410.355 524.393 428.254 528.493 439.942L536.705 463.355H537.398C544.705 463.355 551.473 459.509 555.211 453.23L571.741 425.468C573.651 422.26 574.66 418.596 574.66 414.861V384.204C574.66 372.755 565.378 363.472 553.928 363.472H491.101C487.869 363.472 484.81 364.212 482.083 365.531C486.481 367.657 490.012 371.29 492.008 375.761Z" fill="#D2C7E7"/>
<path d="M461.123 796.582C457.981 796.585 454.863 795.254 452.677 792.669C448.732 788.007 449.311 781.029 453.976 777.085L486.923 749.205L453.976 721.325C449.314 717.381 448.732 710.403 452.677 705.741C456.619 701.08 463.596 700.498 468.258 704.443L511.183 740.762C513.666 742.864 515.1 745.951 515.1 749.205C515.1 752.456 513.666 755.546 511.183 757.645L468.258 793.967C466.182 795.724 463.645 796.582 461.123 796.582Z" fill="white"/>
<path d="M583.86 796.582H531.855C525.748 796.582 520.798 791.632 520.798 785.524C520.798 779.42 525.748 774.467 531.855 774.467H583.86C589.967 774.467 594.917 779.42 594.917 785.524C594.917 791.632 589.967 796.582 583.86 796.582Z" fill="white"/>
</g>
<defs>
<clipPath id="clip0_8_57">
<rect width="630" height="630" fill="white" transform="translate(225 225)"/>
</clipPath>
</defs>
</svg>
